<?xml version="1.0" encoding="utf-8"?>
<!-- Generator: Adobe Illustrator 22.1.0, SVG Export Plug-In . SVG Version: 6.00 Build 0)  -->
<svg version="1.1" id="Layer_2" xmlns="http://www.w3.org/2000/svg" xmlns:xlink="http://www.w3.org/1999/xlink" x="0px" y="0px"
	 viewBox="0 0 72 72" style="enable-background:new 0 0 72 72;" xml:space="preserve">
<style type="text/css">
	.st0{fill:none;stroke:#000000;stroke-width:0.5;stroke-miterlimit:10;}
</style>
<path class="st0" d="M35.7,18l-1.2,0.1l-0.8,0.4c0,0-1.1,0-1.1,0c-1.7,0.3-3.5,0.7-4.9,1.7c-0.2,0.1-0.4,0.3-0.6,0.4
	c-0.2,0.1-0.4,0.2-0.6,0.3c-1,0.4-1.9,0.9-2.8,1.4c-0.1,0.1-0.2,0.2-0.2,0.3c-0.1,0.1-0.2,0.3-0.2,0.4c-0.1,0.2-0.2,0.4-0.4,0.6
	c-0.8,1-0.9,1.2-2,2.2c-0.3,0.8-1,2-1.3,2.7c-0.2,0.8-0.5,1.5-0.7,2.3c-0.3,0.8-0.5,1.6-0.7,2.5c-0.7,3.5,0.4,7,1.4,10.4
	c0.2,0.6,0.6,0.9,1,1.4l0.7,1l0.6,0.8l0.9,1.1l0.6,0.2c0,0,0.4,0.2,0.5,0.4c0.3,0.7,1.2,1.7,1.8,2.2c0.8,0.7,1.8,1,2.8,1.3
	c0.4,0.1,0.8,0.3,1.3,0.2c0.5,0,0.7,0,1.1,0.3c0.3,0.2,0.6,0.2,0.9,0.4c0.3,0.2,0.6,0.3,1,0.4c1,0.3,2,0.5,3.1,0.5
	c0.5,0,0.9-0.1,1.4-0.2c1.6-0.3,3.1-0.5,4.7-0.8c0.6-0.1,1.2-0.2,1.7-0.4c1.1-0.4,2.1-1,2.9-1.9c0.7-0.8,1.9-1.6,2.5-2.5
	c1.1-1.5,2.5-2.1,3.4-3.8c0.8-1.4,0.5-3.2,0.8-4.7c0.1-0.5,0.3-1,0.5-1.6c0.4-1.5,0.4-3-0.1-4.5c-0.1-0.4-0.3-0.8-0.4-1.2
	c-0.1-0.4,0-0.9,0-1.3c0-0.8-0.4-1.6-0.7-2.4c-0.3-0.8-0.7-1.6-1-2.5c-0.1-0.3-0.2-0.6-0.4-0.8c-0.2-0.2-0.4-0.4-0.6-0.6
	c-1.5-1.5-3.1-2.9-4.6-4.4c-0.2-0.2-0.4-0.3-0.6-0.5c-0.2-0.1-0.5-0.2-0.7-0.3c-1.3-0.3-2.5-0.8-3.7-1.2c-0.6-0.2-1.4-0.3-2-0.7
	c-0.2-0.2-1.2-0.3-1.4-0.3S35.7,18,35.7,18z"/>
</svg>
