<?xml version="1.0" encoding="utf-8"?>
<!-- Generator: Adobe Illustrator 22.1.0, SVG Export Plug-In . SVG Version: 6.00 Build 0)  -->
<svg version="1.1" id="Layer_2" xmlns="http://www.w3.org/2000/svg" xmlns:xlink="http://www.w3.org/1999/xlink" x="0px" y="0px"
	 viewBox="0 0 72 72" style="enable-background:new 0 0 72 72;" xml:space="preserve">
<style type="text/css">
	.st0{fill:#603200;}
</style>
<path class="st0" d="M56.9,34c0.1-0.8,0.8-1.2,0.2-2c-0.1-0.1-1.3-1.2-1.3-1.4c0.1-0.4,0.4-0.9,0.4-1.4c0-0.8-0.6-1.6-1-2.4
	c-1-1.8-1.2-3.5-3.3-4.3l-0.6-0.6c0,0-0.6-1-0.6-1c-0.7-1.2-2.4-2.3-3.7-2.9c0,0-0.9-0.3-0.9-0.3c-0.5-0.2-0.7-1.1-1.4-1.3
	c-0.3-0.1-0.7-0.1-1-0.1c-0.6-0.1-1.3-0.3-1.8-0.7c-0.3-0.3-0.4-0.9-0.9-1c-0.3,0-2.2,0.3-2.3,0.3S36,14.6,36,14.6s-0.4,0.6-0.4,0.8
	c0,0.1-0.9,0.3-1.1,0.3c-0.6,0-1.1-0.3-1.7-0.4c-1.1-0.2-3.6-0.3-4.4,0.6c-0.1,0.1-1.1,1.5-1.1,1.5l-2.3,0l-1.2,0.5
	c0,0-1,0.9-1.1,0.9c-0.1,0.1,0,1-0.2,1.2c-0.1,0.2-0.4,0.4-0.7,0.3c-0.2,0-0.3-0.2-0.4-0.2c-0.6-0.3-0.8,1.1-1.2,1.3l-0.8,0.5
	l-0.2,1.5c0,0,0,1.1,0,1.1c-0.8,0.3-1.4,0.6-2.1,1.1c-0.1,0.1-0.3,0.2-0.4,0.3c-0.6,0.8,0.1,2-0.3,2.8c0,0-0.5,1-0.7,1.3
	c-0.3,0.3,0,0.9-0.1,1.3c-0.2,0.6-0.9,1-1.1,1.6c-0.1,0.2-0.1,0.4-0.1,0.6c0,0.3,0.5,0.6,0.7,0.9c0,0,0.2,0.4,0.2,0.5
	c0,0.1-0.2,0.3-0.2,0.9c0.3,0.4,0.3,0.7,0.3,1.2c0,0.8-0.4,1.6-0.5,2.4c-0.1,1.2,0.9,2.2,0.8,3.3c0,0,1,1.9,1,2
	c0.2,0.4-0.4,1.2,0,1.9c0.3,0.5,0.8,0.7,1.3,0.9l0.6,0.6c0,0,0.3,0.7,0.3,0.7c0.4,0.8,0.7,1.8,1,2.7c0.3,0.9,0.3,1,1.2,1
	c0,0,0.5,0.7,0.5,0.7c0.8,1.2,2.2,1,3.6,1.2c0.3,0,0.7,0.1,1,0.3c0.8,0.5,1.3,0.8,2.2,1.1c0.1,0,0.8,0.6,0.8,0.6s1.1,0.7,1.1,0.7
	c1.1,0.7,3.8,0.3,5.1,0.4h1.9c0,0,1.3-0.8,1.4-0.8c0.4,0.1,0.9-0.3,1.3-0.4c1.4-0.2,3.1-0.4,4.6-0.2c0.4,0,2.8-0.6,2.8-0.6l0.7-1
	l1.1-0.3c0,0,0.3-1,0.3-1c0.3-0.9,1.7-1.3,2.5-1.7c0.1,0,0.1-0.1,0.2-0.1c0.1-0.1,0-0.2,0-0.3c0-0.3,0.4-0.4,0.7-0.5
	c0.8-0.2,0.6-2.1,1.1-2.8c0,0,1-1.5,1.1-1.6c0.6-0.4,0.2-1.4,0.3-2c0.1-1,0.9-1.3,1-2.2c0,0,0.8-1.4,0.8-1.5
	c0.1-0.3-0.6-1.6-0.6-2.1C56.7,36.5,56.8,35.2,56.9,34z M53.7,38.3c-0.2,0.5-0.4,1-0.5,1.6c-0.4,1.6,0,3.3-0.8,4.7
	c-1,1.7-2.3,2.3-3.4,3.8c-0.6,0.8-1.7,1.7-2.5,2.5c-0.8,0.9-1.8,1.5-2.9,1.9c-0.6,0.2-1.1,0.3-1.7,0.4c-1.6,0.3-3.1,0.5-4.7,0.8
	c-0.5,0.1-0.9,0.2-1.4,0.2c-1,0-2.1-0.2-3.1-0.5c-0.3-0.1-0.7-0.2-1-0.4c-0.2-0.2-0.6-0.2-0.9-0.4c-0.4-0.2-0.7-0.3-1.1-0.3
	c-0.4,0-0.9-0.1-1.3-0.2c-1-0.3-2-0.6-2.8-1.3c-0.6-0.5-1.4-1.5-1.8-2.2c-0.1-0.2-0.5-0.4-0.5-0.4l-0.6-0.2l-0.9-1.1l-0.6-0.8
	l-0.7-1c-0.4-0.4-0.8-0.8-1-1.4c-1-3.4-2.1-7-1.4-10.4c0.2-0.8,0.4-1.7,0.7-2.5c0.2-0.8,0.5-1.5,0.7-2.3c0.2-0.7,1-1.9,1.3-2.7
	c1.1-1.1,1.1-1.2,2-2.2c0.2-0.2,0.3-0.4,0.4-0.6c0-0.2,0.2-0.3,0.2-0.4c0.1-0.2,0.1-0.3,0.2-0.3c0.9-0.5,1.9-1,2.8-1.4
	c0.2-0.1,0.4-0.2,0.6-0.3c0.2-0.1,0.4-0.3,0.6-0.4c1.4-1.1,3.2-1.5,4.9-1.7h1.1l0.8-0.4l1.2-0.1c0,0,1.8-0.2,1.9-0.3
	c0.2-0.1,1.1,0.1,1.4,0.3c0.6,0.4,1.3,0.5,2,0.7c1.3,0.4,2.5,0.9,3.7,1.2c0.2,0.1,0.5,0.1,0.7,0.3c0.2,0.1,0.4,0.3,0.6,0.5
	c1.5,1.5,3.1,2.9,4.6,4.4c0.2,0.2,0.4,0.4,0.6,0.6c0.2,0.3,0.3,0.6,0.4,0.8c0.3,0.8,0.7,1.6,1,2.5c0.3,0.8,0.6,1.6,0.7,2.4
	c0,0.4,0,0.9,0,1.3c0.1,0.4,0.2,0.8,0.4,1.2C54.1,35.3,54.2,36.8,53.7,38.3z"/>
</svg>
